<?xml version="1.0" encoding="utf-8"?>
<!-- Generator: Adobe Illustrator 21.1.0, SVG Export Plug-In . SVG Version: 6.00 Build 0)  -->
<svg version="1.1" id="Layer_1" xmlns="http://www.w3.org/2000/svg" xmlns:xlink="http://www.w3.org/1999/xlink" x="0px" y="0px"
	 viewBox="0 0 65.5 64.4" style="enable-background:new 0 0 65.5 64.4;" xml:space="preserve">
<g>
	<path d="M33.5,40.3v-2.1c0.7-0.1,1.4-0.4,1.9-0.9c0.8-0.6,1.2-1.5,1.2-2.5c0-0.9-0.4-1.8-1.2-2.5c-0.7-0.6-1.7-1-2.7-1
		c-0.6,0-1.2-0.2-1.7-0.6c-0.4-0.4-0.6-0.8-0.6-1.3s0.2-1,0.6-1.3c0.9-0.8,2.5-0.8,3.4,0c0.4,0.4,0.6,0.8,0.6,1.3h1.5
		c0-0.9-0.4-1.8-1.2-2.5c-0.5-0.5-1.2-0.8-1.9-0.9v-2.1h-1.5V26c-0.7,0.1-1.4,0.4-1.9,0.9c-0.8,0.6-1.2,1.5-1.2,2.5
		c0,0.9,0.4,1.8,1.2,2.5c0.7,0.6,1.7,1,2.7,1c0.6,0,1.2,0.2,1.7,0.6c0.4,0.4,0.6,0.8,0.6,1.3s-0.2,1-0.6,1.3c-0.9,0.8-2.5,0.8-3.4,0
		c-0.4-0.4-0.6-0.8-0.6-1.3h-1.5c0,0.9,0.4,1.8,1.2,2.5c0.5,0.5,1.2,0.8,1.9,0.9v2.1C32,40.3,33.5,40.3,33.5,40.3z"/>
	<path d="M45.1,32.2c0-6.8-5.5-12.4-12.4-12.4s-12.4,5.5-12.4,12.4s5.5,12.4,12.4,12.4S45.1,39,45.1,32.2z M21.8,32.2
		c0-6,4.9-10.9,10.9-10.9s10.9,4.9,10.9,10.9s-4.9,10.9-10.9,10.9S21.8,38.2,21.8,32.2z"/>
	<path d="M36.1,53.2l0.8-4.3c1.7-0.4,3.3-1.1,4.8-2l3.6,2.5l4.7-4.7l-2.5-3.6c0.9-1.5,1.6-3.1,1.9-4.8l4.3-0.8v-6.6l-4.3-0.8
		c-0.4-1.7-1.1-3.3-2-4.8l2.5-3.6L45.2,15l-3.6,2.5c-1.5-0.9-3.1-1.5-4.8-1.9L36,11.3h-6.6l-0.8,4.3c-1.7,0.4-3.3,1.1-4.8,2
		l-3.6-2.5l-4.7,4.7l2.5,3.6c-0.9,1.5-1.5,3.1-2,4.8L11.7,29v6.6l4.3,0.8c0.4,1.7,1.1,3.3,2,4.8l-2.5,3.6l4.7,4.7l3.6-2.5
		c1.5,0.9,3.1,1.6,4.8,2l0.8,4.3L36.1,53.2z M24.3,45.4l-0.4-0.3l-3.4,2.4l-2.9-2.9l2.3-3.4l-0.3-0.4c-1-1.6-1.8-3.3-2.2-5.2
		l-0.1-0.5l-4.1-0.7v-4.1l4.1-0.8l0.1-0.5c0.4-1.9,1.1-3.6,2.1-5.2l0.3-0.4L17.4,20l2.9-2.9l3.4,2.3l0.4-0.3c1.6-1,3.4-1.8,5.2-2.2
		l0.5-0.1l0.7-4.1h4.1l0.8,4.1l0.5,0.1c1.9,0.4,3.6,1.1,5.2,2.1l0.4,0.3l3.4-2.4l2.9,2.9l-2.3,3.4l0.3,0.4c1.1,1.6,1.8,3.4,2.2,5.2
		l0.1,0.5l4.1,0.7v4.1l-4,0.8l-0.1,0.5C47.7,37.2,47,39,46,40.6L45.7,41l2.4,3.4l-2.9,3l-3.4-2.3l-0.4,0.3c-1.6,1-3.3,1.8-5.2,2.2
		l-0.5,0.1l-0.8,4h-4.1l-0.8-4l-0.5-0.1C27.6,47.2,25.9,46.5,24.3,45.4z"/>
	<rect x="34.7" width="1.5" height="1.5"/>
	<rect x="38.4" width="1.5" height="1.5"/>
	<rect x="42.1" width="1.5" height="1.5"/>
	<rect x="45.8" width="1.5" height="1.5"/>
	<path d="M11.7,48.7v7.1C5.2,49.9,1.5,41.5,1.5,32.7c0-17.2,14-31.2,31.2-31.2V0C14.6,0,0,14.7,0,32.7c0,9.1,3.8,17.8,10.4,23.9H3.7
		v1.5h9.5v-9.5L11.7,48.7L11.7,48.7z"/>
	<path d="M55,7.8h6.7V6.3h-9.5v9.5h1.5V8.7c6.5,5.8,10.3,14.2,10.3,23c0,17.2-14,31.2-31.2,31.2v1.5c18,0,32.7-14.7,32.7-32.7
		C65.5,22.6,61.7,13.9,55,7.8z"/>
	<rect x="29.2" y="62.9" width="1.5" height="1.5"/>
	<rect x="25.5" y="62.9" width="1.5" height="1.5"/>
	<rect x="21.8" y="62.9" width="1.5" height="1.5"/>
	<rect x="18.1" y="62.9" width="1.5" height="1.5"/>
</g>
</svg>
