<?xml version="1.0" encoding="utf-8"?>
<!-- Generator: Adobe Illustrator 21.1.0, SVG Export Plug-In . SVG Version: 6.00 Build 0)  -->
<svg version="1.1"
	 id="Layer_1" xmlns:cc="http://creativecommons.org/ns#" xmlns:dc="http://purl.org/dc/elements/1.1/" xmlns:inkscape="http://www.inkscape.org/namespaces/inkscape" xmlns:rdf="http://www.w3.org/1999/02/22-rdf-syntax-ns#" xmlns:sodipodi="http://sodipodi.sourceforge.net/DTD/sodipodi-0.dtd" xmlns:svg="http://www.w3.org/2000/svg"
	 xmlns="http://www.w3.org/2000/svg" xmlns:xlink="http://www.w3.org/1999/xlink" x="0px" y="0px" viewBox="0 0 55.4 57.9"
	 style="enable-background:new 0 0 55.4 57.9;" xml:space="preserve">
<g transform="translate(0,-956.36216)">
	<g>
		<path d="M40.4,956.4c-0.3,0-0.5,0.2-0.5,0.5s0.2,0.5,0.5,0.5h3.2c0.3,0,0.5-0.2,0.5-0.5s-0.2-0.5-0.5-0.5l0,0H40.4L40.4,956.4z
			 M45.2,956.4c-0.3,0-0.5,0.2-0.5,0.5s0.2,0.5,0.5,0.5h9c0.3,0,0.5-0.2,0.5-0.5s-0.2-0.5-0.5-0.5l0,0H45.2L45.2,956.4z M28.6,957.5
			c-1.1,0-2,0.9-2,2s0.9,2,2,2s2-0.9,2-2S29.7,957.5,28.6,957.5z M44.3,958.4c-0.3,0-0.5,0.2-0.5,0.5s0.2,0.5,0.5,0.5h6.2
			c0.3,0,0.5-0.2,0.5-0.5s-0.2-0.5-0.5-0.5l0,0H44.3C44.4,958.4,44.3,958.4,44.3,958.4z M52.1,958.4c-0.3,0-0.5,0.2-0.5,0.5
			s0.2,0.5,0.5,0.5h2.6c0.3,0,0.5-0.2,0.5-0.5s-0.2-0.5-0.5-0.5l0,0H52.1L52.1,958.4z M28.6,958.5c0.5,0,1,0.4,1,1s-0.4,1-1,1
			s-1-0.4-1-1S28.1,958.5,28.6,958.5z M15.5,958.8c-4,0-7.2,3.2-7.2,7.2c0,2.6,1.4,4.9,3.5,6.2l0,0c0,0.9,0.3,1.7,0.7,2.2
			c0.3,0.4,0.6,0.6,0.9,0.8l-0.8,2.4l-1.2-3.5c-0.1-0.2-0.3-0.3-0.5-0.3H9.7c-2.9,0-5.2,2.3-5.2,5.2v11.6c0,0.3,0.2,0.5,0.5,0.5
			s0.5-0.2,0.5-0.5l0,0V979c0-2.3,1.9-4.2,4.2-4.2l0,0h1l4.3,12.6v13h-0.9c-0.8,0-1.4,0.6-1.4,1.4v2.8c0,0.8,0.6,1.4,1.4,1.4h2.8
			c0.8,0,1.4-0.6,1.4-1.4v-0.9h7.5c1.3,6.1,6.7,10.6,13.1,10.6c7.4,0,13.4-6,13.4-13.4c0-7.2-5.7-13.1-12.9-13.4v-18.7h0.9
			c0.8,0,1.4-0.6,1.4-1.4v-2.8c0-0.8-0.6-1.4-1.4-1.4h-2.8c-0.8,0-1.4,0.6-1.4,1.4v0.9H22.7C22.5,961.8,19.3,958.8,15.5,958.8z
			 M1,959.4c-0.3,0-0.5,0.2-0.5,0.5l0,0v5.1c0,0.3,0.2,0.5,0.5,0.5s0.5-0.2,0.5-0.5l0,0v-5.1C1.5,959.6,1.3,959.4,1,959.4L1,959.4
			L1,959.4z M3.2,959.4c-0.3,0-0.5,0.2-0.5,0.5l0,0v1.7c0,0.3,0.2,0.5,0.5,0.5s0.5-0.2,0.5-0.5l0,0v-1.7
			C3.7,959.6,3.5,959.4,3.2,959.4L3.2,959.4z M15.5,959.8c3.5,0,6.2,2.8,6.2,6.2s-2.8,6.2-6.2,6.2s-6.2-2.8-6.2-6.2
			C9.3,962.6,12,959.8,15.5,959.8z M3.2,962.6c-0.3,0-0.5,0.2-0.5,0.5l0,0v5.1c0,0.3,0.2,0.5,0.5,0.5s0.5-0.2,0.5-0.5l0,0v-5.1
			C3.7,962.8,3.5,962.6,3.2,962.6L3.2,962.6z M37.5,964.2h2.8c0.2,0,0.4,0.2,0.4,0.4v2.8c0,0.2-0.2,0.4-0.4,0.4h-2.8
			c-0.2,0-0.4-0.2-0.4-0.4v-2.8C37.1,964.4,37.3,964.2,37.5,964.2z M49.6,965.6c-0.3,0-0.5,0.2-0.5,0.5l0,0v5.1
			c0,0.3,0.2,0.5,0.5,0.5s0.5-0.2,0.5-0.5l0,0v-5.1C50.2,965.8,49.9,965.6,49.6,965.6L49.6,965.6z M1,965.9c-0.3,0-0.5,0.2-0.5,0.5
			v1.7c0,0.3,0.2,0.5,0.5,0.5s0.5-0.2,0.5-0.5l0,0v-1.7C1.5,966.1,1.3,965.9,1,965.9L1,965.9z M22.7,966.5h13.4v0.9
			c0,0.8,0.6,1.4,1.4,1.4h0.9v18.7c-7.2,0.3-12.9,6.2-12.9,13.4c0,0.6,0.1,1.2,0.1,1.8h-7.3v-0.9c0-0.8-0.6-1.4-1.4-1.4H16v-13
			l4.3-12.6h1c2.3,0,4.2,1.8,4.2,4.2v11.6c0,0.3,0.2,0.5,0.5,0.5s0.5-0.2,0.5-0.5l0,0V979c0-2.8-2.3-5.2-5.2-5.2H20
			c-0.2,0-0.4,0.1-0.5,0.3l-1.2,3.5l-0.8-2.4c0.4-0.2,0.7-0.5,0.9-0.9c0.4-0.6,0.7-1.4,0.7-2.2l0,0C21.2,971,22.5,968.9,22.7,966.5
			L22.7,966.5z M28.1,968.9c-0.3,0-0.5,0.2-0.5,0.5c0,0.1,0.1,0.3,0.2,0.4l1.8,1.8c0.2,0.2,0.5,0.2,0.7,0s0.2-0.5,0-0.7l0,0
			l-1.8-1.8C28.4,968.9,28.2,968.9,28.1,968.9z M34.1,968.9c-0.1,0-0.3,0.1-0.3,0.2l-1.8,1.8c-0.2,0.2-0.2,0.5,0,0.7s0.5,0.2,0.7,0
			l0,0l1.8-1.8c0.2-0.2,0.2-0.5,0-0.7C34.4,968.9,34.3,968.9,34.1,968.9z M49.6,972.1c-0.3,0-0.5,0.2-0.5,0.5v1.7
			c0,0.3,0.2,0.5,0.5,0.5s0.5-0.2,0.5-0.5l0,0v-1.7C50.2,972.3,49.9,972.1,49.6,972.1L49.6,972.1z M12.8,972.7
			c0.8,0.3,1.7,0.5,2.7,0.5c0.9,0,1.8-0.2,2.7-0.5c-0.1,0.4-0.3,0.8-0.5,1.1c-0.3,0.4-0.7,0.7-0.9,0.7h-2.5c-0.3,0-0.6-0.2-0.9-0.6
			C13.1,973.6,12.9,973.2,12.8,972.7z M29.9,973.1c-0.1,0-0.3,0.1-0.3,0.2l-1.8,1.8c-0.2,0.2-0.2,0.5,0,0.7s0.5,0.2,0.7,0l0,0
			l1.8-1.8c0.2-0.2,0.2-0.5,0-0.7C30.2,973.2,30,973.1,29.9,973.1z M32.3,973.1c-0.3,0-0.5,0.2-0.5,0.5c0,0.1,0.1,0.3,0.2,0.4
			l1.8,1.8c0.2,0.2,0.5,0.2,0.7,0s0.2-0.5,0-0.7l0,0l-1.8-1.8C32.6,973.2,32.5,973.1,32.3,973.1z M14.4,975.5h2.1l1.2,3.8l-2.3,6.5
			l-2.3-6.5L14.4,975.5z M47.6,979.7c-0.3,0-0.5,0.2-0.5,0.5c0,0.1,0.1,0.3,0.2,0.4l1.8,1.8c0.2,0.2,0.5,0.2,0.7,0s0.2-0.5,0-0.7
			l0,0l-1.8-1.8C47.9,979.8,47.8,979.7,47.6,979.7L47.6,979.7z M53.7,979.7c-0.1,0-0.3,0.1-0.3,0.2l-1.8,1.8c-0.2,0.2-0.2,0.5,0,0.7
			s0.5,0.2,0.7,0l0,0l1.8-1.8c0.2-0.2,0.2-0.5,0-0.7C54,979.8,53.8,979.7,53.7,979.7L53.7,979.7z M32.3,980.7c-1.1,0-2,0.9-2,2
			s0.9,2,2,2s2-0.9,2-2C34.3,981.6,33.4,980.7,32.3,980.7z M32.3,981.7c0.5,0,1,0.4,1,1c0,0.5-0.4,1-1,1s-1-0.4-1-1
			C31.4,982.2,31.8,981.7,32.3,981.7z M49.4,984c-0.1,0-0.3,0.1-0.3,0.2l-1.8,1.8c-0.2,0.2-0.2,0.5,0,0.7s0.5,0.2,0.7,0l0,0l1.8-1.8
			c0.2-0.2,0.2-0.5,0-0.7C49.7,984,49.6,984,49.4,984z M51.9,984c-0.3,0-0.5,0.2-0.5,0.5c0,0.1,0.1,0.3,0.2,0.4l1.8,1.8
			c0.2,0.2,0.5,0.2,0.7,0s0.2-0.5,0-0.7l0,0l-1.8-1.8C52.1,984,52,984,51.9,984z M38.9,988.5c6.9,0,12.4,5.6,12.4,12.4
			s-5.6,12.4-12.4,12.4s-12.4-5.6-12.4-12.4C26.5,994,32,988.5,38.9,988.5L38.9,988.5z M9.7,988.6c-0.3,0-0.5,0.2-0.5,0.5l0,0v5.1
			c0,0.3,0.2,0.5,0.5,0.5s0.5-0.2,0.5-0.5l0,0v-5.1C10.3,988.9,10,988.6,9.7,988.6L9.7,988.6z M34.6,990.2c-0.3,0-0.5,0.2-0.5,0.5
			c0,0.2,0.1,0.3,0.2,0.4l2.8,1.9v1.8c-0.9,0.3-1.8,0.8-2.5,1.5l-3.6-2.1c-0.2-0.1-0.5-0.1-0.7,0.2l0,0l-2.8,4.8
			c-0.1,0.2-0.1,0.5,0.2,0.7c0.1,0.1,0.3,0.1,0.5,0l3-1.5l1.6,0.9c-0.1,0.5-0.2,1-0.2,1.5s0.1,1,0.2,1.4l-3.6,2.1
			c-0.2,0.1-0.3,0.4-0.2,0.7l0,0l2.8,4.8c0.1,0.2,0.4,0.3,0.7,0.2c0.1-0.1,0.2-0.2,0.2-0.4l0.3-3.4l1.6-0.9c0.7,0.7,1.6,1.2,2.5,1.5
			v4.2c0,0.3,0.2,0.5,0.5,0.5h5.6c0.3,0,0.5-0.2,0.5-0.5c0-0.2-0.1-0.3-0.2-0.4l-2.8-1.9v-1.8c0.9-0.3,1.8-0.8,2.5-1.5l3.6,2.1
			c0.2,0.1,0.5,0.1,0.7-0.2l2.8-4.8c0.1-0.2,0.1-0.5-0.2-0.7c-0.1-0.1-0.3-0.1-0.5,0l-3.1,1.5l-1.6-0.9c0.1-0.5,0.2-1,0.2-1.5
			s-0.1-1-0.2-1.4l3.6-2.1c0.2-0.1,0.3-0.4,0.2-0.7l0,0l-2.8-4.8c-0.1-0.2-0.4-0.3-0.7-0.2c-0.1,0.1-0.2,0.2-0.2,0.4l-0.3,3.4
			l-1.6,0.9c-0.7-0.7-1.6-1.2-2.5-1.5v-4.2c0-0.3-0.2-0.5-0.5-0.5L34.6,990.2L34.6,990.2L34.6,990.2z M36.2,991.2h3.5v4
			c0,0.2,0.2,0.4,0.4,0.5c1,0.2,2,0.8,2.7,1.6c0.2,0.2,0.4,0.2,0.6,0.1l2.1-1.2c0.1-0.1,0.2-0.2,0.2-0.4l0.2-2l1.7,3l-3.4,2
			c-0.2,0.1-0.3,0.4-0.2,0.6c0.2,0.5,0.2,1,0.2,1.6c0,0.5-0.1,1.1-0.2,1.6c-0.1,0.2,0,0.5,0.2,0.6l2.1,1.2c0.1,0.1,0.3,0.1,0.5,0
			l1.8-0.9l-1.7,3l-3.5-2c-0.2-0.1-0.5-0.1-0.6,0.1c-0.7,0.8-1.7,1.3-2.7,1.6c-0.2,0.1-0.4,0.3-0.4,0.5v2.4c0,0.2,0.1,0.3,0.2,0.4
			l1.7,1.2h-3.5v-4c0-0.2-0.2-0.4-0.4-0.5c-1-0.2-2-0.8-2.7-1.6c-0.2-0.2-0.4-0.2-0.6-0.1l-2.1,1.2c-0.1,0.1-0.2,0.2-0.2,0.4l-0.2,2
			l-1.7-3l3.5-2c0.2-0.1,0.3-0.4,0.2-0.6c-0.2-0.5-0.2-1-0.2-1.6c0-0.5,0.1-1.1,0.2-1.6c0.1-0.2,0-0.5-0.2-0.6l-2.1-1.2
			c-0.1-0.1-0.3-0.1-0.5,0l-1.8,0.9l1.7-3l3.5,2c0.2,0.1,0.5,0.1,0.6-0.1c0.7-0.8,1.7-1.3,2.7-1.6c0.2-0.1,0.4-0.3,0.4-0.5v-2.4
			c0-0.2-0.1-0.3-0.2-0.4L36.2,991.2L36.2,991.2z M2,992.9c-1.1,0-2,0.9-2,2s0.9,2,2,2s2-0.9,2-2S3.1,992.9,2,992.9z M2,993.9
			c0.5,0,1,0.4,1,1c0,0.5-0.4,1-1,1s-1-0.4-1-1C1.1,994.4,1.5,993.9,2,993.9z M9.7,995.2c-0.3,0-0.5,0.2-0.5,0.5v1.7
			c0,0.3,0.2,0.5,0.5,0.5s0.5-0.2,0.5-0.5l0,0v-1.7C10.3,995.4,10,995.2,9.7,995.2L9.7,995.2z M38.9,997.7c-1.8,0-3.2,1.4-3.2,3.2
			s1.4,3.2,3.2,3.2s3.2-1.4,3.2-3.2C42.1,999.1,40.7,997.7,38.9,997.7z M38.9,998.7c1.2,0,2.2,1,2.2,2.2s-1,2.2-2.2,2.2
			s-2.2-1-2.2-2.2S37.7,998.7,38.9,998.7z M14.1,1001.4h2.8c0.2,0,0.4,0.2,0.4,0.4v2.8c0,0.2-0.2,0.4-0.4,0.4h-2.8
			c-0.2,0-0.4-0.2-0.4-0.4v-2.8C13.7,1001.6,13.9,1001.4,14.1,1001.4z M1,1002c-0.3,0-0.5,0.2-0.5,0.5c0,0.1,0.1,0.3,0.2,0.4
			l1.8,1.8c0.2,0.2,0.5,0.2,0.7,0s0.2-0.5,0-0.7l0,0l-1.8-1.8C1.3,1002.1,1.2,1002,1,1002L1,1002z M7.1,1002c-0.1,0-0.3,0.1-0.3,0.2
			L5,1004c-0.2,0.2-0.2,0.5,0,0.7s0.5,0.2,0.7,0l0,0l1.8-1.8c0.2-0.2,0.2-0.5,0-0.7C7.3,1002.1,7.2,1002,7.1,1002z M2.8,1006.3
			c-0.1,0-0.3,0.1-0.3,0.2l-1.8,1.8c-0.2,0.2-0.2,0.5,0,0.7s0.5,0.2,0.7,0l0,0l1.8-1.8c0.2-0.2,0.2-0.5,0-0.7
			C3.1,1006.3,3,1006.3,2.8,1006.3z M5.3,1006.3c-0.3,0-0.5,0.2-0.5,0.5c0,0.1,0.1,0.3,0.2,0.4l1.8,1.8c0.2,0.2,0.5,0.2,0.7,0
			s0.2-0.5,0-0.7l0,0l-1.8-1.8C5.5,1006.3,5.4,1006.3,5.3,1006.3L5.3,1006.3z M53.4,1009.2c-1.1,0-2,0.9-2,2s0.9,2,2,2s2-0.9,2-2
			S54.4,1009.2,53.4,1009.2z M11.3,1009.9c-0.3,0-0.5,0.2-0.5,0.5s0.2,0.5,0.5,0.5l0,0h3.2c0.3,0,0.5-0.2,0.5-0.5s-0.2-0.5-0.5-0.5
			l0,0H11.3L11.3,1009.9z M16.1,1009.9c-0.3,0-0.5,0.2-0.5,0.5s0.2,0.5,0.5,0.5h9c0.3,0,0.5-0.2,0.5-0.5s-0.2-0.5-0.5-0.5l0,0H16.1
			L16.1,1009.9z M53.4,1010.2c0.5,0,1,0.4,1,1c0,0.5-0.4,1-1,1s-1-0.4-1-1S52.8,1010.2,53.4,1010.2z M15.2,1011.9
			c-0.3,0-0.5,0.2-0.5,0.5s0.2,0.5,0.5,0.5l0,0h6.2c0.3,0,0.5-0.2,0.5-0.5s-0.2-0.5-0.5-0.5l0,0H15.2
			C15.3,1011.9,15.2,1011.9,15.2,1011.9z M23,1011.9c-0.3,0-0.5,0.2-0.5,0.5s0.2,0.5,0.5,0.5h2.6c0.3,0,0.5-0.2,0.5-0.5
			s-0.2-0.5-0.5-0.5l0,0H23L23,1011.9z"/>
	</g>
</g>
</svg>
